HIERARCHY
ROOT joint_Root
{
	OFFSET 0.0 0.0 0.0
	CHANNELS 6 Xposition Yposition Zposition Zrotation Xrotation Yrotation 
	JOINT Hips
	{
		OFFSET -0.726466 93.3139 -2.00062
		CHANNELS 6 Xposition Yposition Zposition Zrotation Xrotation Yrotation 
		JOINT Spine
		{
			OFFSET 15.7357 0.0 0.0
			CHANNELS 6 Xposition Yposition Zposition Zrotation Xrotation Yrotation 
			JOINT Chest
			{
				OFFSET 8.98455 -0.406207 0.0
				CHANNELS 6 Xposition Yposition Zposition Zrotation Xrotation Yrotation 
				JOINT Neck
				{
					OFFSET 16.3773 0.0 0.0
					CHANNELS 6 Xposition Yposition Zposition Zrotation Xrotation Yrotation 
					JOINT Head
					{
						OFFSET 6.45672 0.0 0.0
						CHANNELS 6 Xposition Yposition Zposition Zrotation Xrotation Yrotation 
						End Site
						{
							OFFSET 0.0 0.0 0.0
						}
					}
				}
				JOINT Shoulder_L
				{
					OFFSET 12.9942 -0.242716 4.98039
					CHANNELS 6 Xposition Yposition Zposition Zrotation Xrotation Yrotation 
					JOINT UpperArm_L
					{
						OFFSET 5.34809 0.0 0.0
						CHANNELS 6 Xposition Yposition Zposition Zrotation Xrotation Yrotation 
						JOINT LowerArm_L
						{
							OFFSET 24.3286 1.87007e-05 0.0
							CHANNELS 6 Xposition Yposition Zposition Zrotation Xrotation Yrotation 
							JOINT Hand_L
							{
								OFFSET 22.2916 0.0 0.0
								CHANNELS 6 Xposition Yposition Zposition Zrotation Xrotation Yrotation 
								End Site
								{
									OFFSET 0.0 0.0 0.0
								}
							}
						}
					}
				}
				JOINT Shoulder_R
				{
					OFFSET 12.9945 -0.242716 -4.98039
					CHANNELS 6 Xposition Yposition Zposition Zrotation Xrotation Yrotation 
					JOINT UpperArm_R
					{
						OFFSET -5.34813 0.0 0.0
						CHANNELS 6 Xposition Yposition Zposition Zrotation Xrotation Yrotation 
						JOINT LowerArm_R
						{
							OFFSET -24.3289 0.000322201 0.0
							CHANNELS 6 Xposition Yposition Zposition Zrotation Xrotation Yrotation 
							JOINT Hand_R
							{
								OFFSET -22.2915 -0.000108084 0.0
								CHANNELS 6 Xposition Yposition Zposition Zrotation Xrotation Yrotation 
								End Site
								{
									OFFSET 0.0 0.0 0.0
								}
							}
						}
					}
				}
			}
		}
		JOINT UpperLeg_L
		{
			OFFSET -2.19248 -6.46944 0.0
			CHANNELS 6 Xposition Yposition Zposition Zrotation Xrotation Yrotation 
			JOINT LowerLeg_L
			{
				OFFSET 39.0811 0.0 -1.23785e-05
				CHANNELS 6 Xposition Yposition Zposition Zrotation Xrotation Yrotation 
				JOINT Foot_L
				{
					OFFSET 40.9854 0.0 -1.26872e-05
					CHANNELS 6 Xposition Yposition Zposition Zrotation Xrotation Yrotation 
					JOINT Toes_L
					{
						OFFSET 11.7543 0.0 0.0
						CHANNELS 6 Xposition Yposition Zposition Zrotation Xrotation Yrotation 
						End Site
						{
							OFFSET 0.0 0.0 0.0
						}
					}
				}
			}
		}
		JOINT UpperLeg_R
		{
			OFFSET -2.19251 6.46944 0.0
			CHANNELS 6 Xposition Yposition Zposition Zrotation Xrotation Yrotation 
			JOINT LowerLeg_R
			{
				OFFSET -39.0811 -0.00228153 -0.0401928
				CHANNELS 6 Xposition Yposition Zposition Zrotation Xrotation Yrotation 
				JOINT Foot_R
				{
					OFFSET -40.9854 0.0 0.0
					CHANNELS 6 Xposition Yposition Zposition Zrotation Xrotation Yrotation 
					JOINT Toes_R
					{
						OFFSET -11.7543 0.0 0.0
						CHANNELS 6 Xposition Yposition Zposition Zrotation Xrotation Yrotation 
						End Site
						{
							OFFSET 0.0 0.0 0.0
						}
					}
				}
			}
		}
	}
}
MOTION
Frames:	8
Frame Time:	0.0333333
0.000000 0.000000 0.000000 0.000000 0.000000 -0.000000 -4.077380 91.998800 -0.857697 87.393200 0.185397 2.125210 15.735700 0.000005 -0.000001 79.127100 85.829200 -74.590500 8.984550 -0.406207 -0.000000 0.516076 -1.859450 9.075820 16.377300 -0.000001 -0.000001 1.106550 -0.264229 -1.523890 6.456720 -0.000001 -0.000000 -3.782080 -2.630060 16.975700 12.994200 -0.242716 4.980390 -83.672900 -11.442200 -60.797900 5.348090 -0.000007 -0.000001 -75.764100 -57.706100 -130.826000 24.328600 0.000019 0.000005 -0.035618 -0.032750 -47.434700 22.291600 -0.000001 0.000005 20.968100 5.568430 -9.608570 12.994500 -0.242716 -4.980390 90.188600 -0.560201 -71.389300 -5.348130 -0.000001 -0.000004 -52.598600 77.226900 8.199590 -24.328900 0.000322 -0.000009 21.606400 -0.496370 -91.253700 -22.291500 -0.000108 -0.000004 36.927000 5.671520 -17.625100 -2.192480 -6.469440 -0.000000 -166.067000 -15.706900 -2.082590 39.081100 -0.000007 -0.000012 -0.137744 0.427226 17.870200 40.985400 -0.000006 -0.000013 -9.029280 2.803670 -60.986600 11.754300 -0.000000 0.000003 -0.000075 -0.000808 -16.608700 -2.192510 6.469440 -0.000001 176.816000 20.605100 178.296000 -39.081100 -0.002282 -0.040193 -0.086614 0.247688 19.956000 -40.985400 0.000008 0.000006 -2.917090 2.103460 -64.671200 -11.754300 -0.000006 -0.000006 -0.003968 -0.051104 -18.651900
0.000000 0.000000 0.000000 0.000000 0.000000 -0.000000 -4.056990 91.993100 -0.855378 87.385000 0.051433 2.055630 15.735700 0.000005 -0.000001 78.975600 85.839400 -74.453500 8.984550 -0.406207 -0.000000 0.492209 -1.877240 9.046510 16.377300 -0.000001 -0.000001 1.048820 -0.229956 -1.628690 6.456720 -0.000001 -0.000000 -3.872930 -2.561310 16.842100 12.994200 -0.242716 4.980390 -83.710600 -11.358500 -60.767900 5.348090 -0.000007 -0.000001 -76.060800 -57.535300 -131.193000 24.328600 0.000019 0.000005 -0.149639 -0.138099 -47.309200 22.291600 -0.000001 0.000005 21.133600 5.571430 -9.761650 12.994500 -0.242716 -4.980390 90.173300 -0.513447 -71.346000 -5.348130 -0.000001 -0.000004 -52.435600 77.282200 8.017410 -24.328900 0.000322 -0.000009 21.337900 -0.459960 -91.178000 -22.291500 -0.000108 -0.000004 37.084200 5.673300 -17.932100 -2.192480 -6.469440 -0.000000 -166.066000 -15.775700 -2.120220 39.081100 -0.000007 -0.000012 -0.139459 0.431568 17.908100 40.985400 -0.000006 -0.000013 -9.037310 2.775280 -61.037600 11.754300 -0.000000 0.000003 -0.000076 -0.000813 -16.608900 -2.192510 6.469440 -0.000001 176.856000 20.477100 178.174000 -39.081100 -0.002282 -0.040193 -0.085007 0.242567 20.008500 -40.985400 0.000008 0.000006 -2.914050 2.112710 -64.682200 -11.754300 -0.000006 -0.000006 -0.004339 -0.054922 -18.807400
0.000000 0.000000 0.000000 0.000000 0.000000 -0.000000 -4.054200 91.998700 -0.862264 87.362300 -0.064959 2.024820 15.735700 0.000005 -0.000001 79.033000 85.850300 -74.525400 8.984550 -0.406207 -0.000000 0.471676 -1.864830 9.017310 16.377300 -0.000001 -0.000001 0.959780 -0.191782 -1.718680 6.456720 -0.000001 -0.000000 -3.886100 -2.560040 16.831400 12.994200 -0.242716 4.980390 -83.732900 -11.312600 -60.758000 5.348090 -0.000007 -0.000001 -75.838200 -57.705600 -130.441000 24.328600 0.000019 0.000005 -0.411013 -0.388146 -46.645400 22.291600 -0.000001 0.000005 21.406100 5.576120 -10.005900 12.994500 -0.242716 -4.980390 90.149300 -0.442900 -71.366900 -5.348130 -0.000001 -0.000004 -53.162300 77.291400 8.780370 -24.328900 0.000322 -0.000009 21.116700 -0.423316 -91.096700 -22.291500 -0.000108 -0.000004 37.427400 5.674780 -18.218200 -2.192480 -6.469440 -0.000000 -166.061000 -15.808200 -2.122050 39.081100 -0.000007 -0.000012 -0.139024 0.430424 17.900200 40.985400 -0.000006 -0.000013 -9.043520 2.673100 -61.049300 11.754300 -0.000000 0.000003 -0.000078 -0.000835 -16.609700 -2.192510 6.469440 -0.000001 176.897000 20.409400 178.140000 -39.081100 -0.002282 -0.040193 -0.084121 0.240689 19.966100 -40.985400 0.000008 0.000006 -2.884430 2.145200 -64.644300 -11.754300 -0.000006 -0.000006 -0.003994 -0.051381 -18.663200
0.000000 0.000000 0.000000 0.000000 0.000000 -0.000000 -4.060090 91.994700 -0.876109 87.334200 -0.227167 1.986410 15.735700 0.000005 -0.000001 79.487600 85.852800 -74.987200 8.984550 -0.406207 -0.000000 0.476175 -1.798590 9.002670 16.377300 -0.000001 -0.000001 0.907204 -0.205191 -1.710820 6.456720 -0.000001 -0.000000 -3.957940 -2.552570 16.779900 12.994200 -0.242716 4.980390 -83.758400 -11.271500 -60.770500 5.348090 -0.000007 -0.000001 -75.395000 -58.113900 -128.824000 24.328600 0.000019 0.000005 -0.566006 -0.555143 -45.556800 22.291600 -0.000001 0.000005 21.276500 5.573640 -9.875250 12.994500 -0.242716 -4.980390 90.140600 -0.416512 -71.341700 -5.348130 -0.000001 -0.000004 -53.411700 77.246000 9.021030 -24.328900 0.000322 -0.000009 20.978800 -0.405455 -91.058000 -22.291500 -0.000108 -0.000004 37.457100 5.675310 -18.327300 -2.192480 -6.469440 -0.000000 -166.040000 -15.782500 -2.139750 39.081100 -0.000007 -0.000012 -0.138968 0.429241 17.939600 40.985400 -0.000006 -0.000013 -9.078290 2.507510 -61.102600 11.754300 -0.000000 0.000003 -0.000068 -0.000736 -16.606000 -2.192510 6.469440 -0.000001 176.947000 20.294700 178.065000 -39.081100 -0.002282 -0.040193 -0.084482 0.241520 19.978500 -40.985400 0.000008 0.000006 -2.928950 2.189620 -64.625500 -11.754300 -0.000006 -0.000006 -0.004349 -0.055022 -18.811400
0.000000 0.000000 0.000000 0.000000 0.000000 -0.000000 -4.070970 92.010000 -0.894534 87.324300 -0.256317 1.988160 15.735700 0.000005 -0.000001 79.519300 85.845600 -75.032800 8.984550 -0.406207 -0.000000 0.490756 -1.795250 8.974910 16.377300 -0.000001 -0.000001 0.831499 -0.247092 -1.664340 6.456720 -0.000001 -0.000000 -3.983110 -2.517580 16.777600 12.994200 -0.242716 4.980390 -83.795000 -11.241500 -60.850900 5.348090 -0.000007 -0.000001 -74.465600 -58.772000 -126.260000 24.328600 0.000019 0.000005 -0.680088 -0.704311 -44.000900 22.291600 -0.000001 0.000005 21.169400 5.572400 -9.810740 12.994500 -0.242716 -4.980390 90.131400 -0.387607 -71.276400 -5.348130 -0.000001 -0.000004 -53.410800 77.175400 9.029400 -24.328900 0.000322 -0.000009 20.900700 -0.422696 -91.107500 -22.291500 -0.000108 -0.000004 37.128100 5.675190 -18.302600 -2.192480 -6.469440 -0.000000 -166.030000 -15.810200 -2.091400 39.081100 -0.000007 -0.000012 -0.137104 0.426439 17.823200 40.985400 -0.000006 -0.000013 -9.080900 2.487510 -61.026700 11.754300 -0.000000 0.000003 -0.000074 -0.000792 -16.608100 -2.192510 6.469440 -0.000001 176.984000 20.278900 178.071000 -39.081100 -0.002282 -0.040193 -0.081989 0.235354 19.924400 -40.985400 0.000008 0.000006 -2.740770 2.195920 -64.595800 -11.754300 -0.000006 -0.000006 -0.004202 -0.053525 -18.750500
0.000000 0.000000 0.000000 0.000000 0.000000 -0.000000 -4.090860 92.004700 -0.927920 87.308100 -0.279555 1.974530 15.735700 0.000005 -0.000001 79.664800 85.847400 -75.186700 8.984550 -0.406207 -0.000000 0.489939 -1.773350 8.957960 16.377300 -0.000001 -0.000001 0.750739 -0.305714 -1.558650 6.456720 -0.000001 -0.000000 -3.974950 -2.509100 16.740300 12.994200 -0.242716 4.980390 -83.862900 -11.197300 -61.026100 5.348090 -0.000007 -0.000001 -73.149300 -59.483500 -122.834000 24.328600 0.000019 0.000005 -0.683737 -0.754335 -42.193700 22.291600 -0.000001 0.000005 20.965000 5.567680 -9.569570 12.994500 -0.242716 -4.980390 90.136300 -0.400647 -71.206600 -5.348130 -0.000001 -0.000004 -53.534500 77.053000 9.109130 -24.328900 0.000322 -0.000009 20.918700 -0.438262 -91.147100 -22.291500 -0.000108 -0.000004 36.729700 5.674950 -18.253900 -2.192480 -6.469440 -0.000000 -166.007000 -15.768200 -2.144580 39.081100 -0.000007 -0.000012 -0.138246 0.428919 17.864900 40.985400 -0.000006 -0.000013 -9.104560 2.429670 -61.031900 11.754300 -0.000000 0.000003 -0.000087 -0.000914 -16.612700 -2.192510 6.469440 -0.000001 177.012000 20.258800 178.035000 -39.081100 -0.002282 -0.040193 -0.085570 0.245322 19.917800 -40.985400 0.000008 0.000006 -2.933910 2.213890 -64.559600 -11.754300 -0.000006 -0.000006 -0.004136 -0.052850 -18.723000
0.000000 0.000000 0.000000 0.000000 0.000000 -0.000000 -4.133140 92.012000 -0.974024 87.255200 -0.261820 2.007460 15.735700 0.000005 -0.000001 79.858100 85.825900 -75.377600 8.984550 -0.406207 -0.000000 0.536483 -1.751690 8.963300 16.377300 -0.000001 -0.000001 0.663269 -0.394021 -1.433620 6.456720 -0.000001 -0.000000 -4.010400 -2.517610 16.727700 12.994200 -0.242716 4.980390 -83.947200 -11.093300 -61.140400 5.348090 -0.000007 -0.000001 -71.206400 -60.171700 -118.534000 24.328600 0.000019 0.000005 -0.725924 -0.860680 -40.148300 22.291600 -0.000001 0.000005 21.108200 5.563800 -9.375110 12.994500 -0.242716 -4.980390 90.130500 -0.381522 -71.118700 -5.348130 -0.000001 -0.000004 -53.701100 76.958100 9.231950 -24.328900 0.000322 -0.000009 21.123400 -0.436240 -91.129700 -22.291500 -0.000108 -0.000004 36.674500 5.674650 -18.193600 -2.192480 -6.469440 -0.000000 -165.917000 -15.888600 -2.136320 39.081100 -0.000007 -0.000012 -0.137130 0.426018 17.842800 40.985400 -0.000006 -0.000013 -9.102730 2.539560 -60.956700 11.754300 -0.000000 0.000003 -0.000080 -0.000849 -16.610300 -2.192510 6.469440 -0.000001 177.118000 20.199000 178.038000 -39.081100 -0.002282 -0.040193 -0.083070 0.238626 19.902200 -40.985400 0.000008 0.000006 -2.790310 2.110560 -64.544000 -11.754300 -0.000006 -0.000006 -0.004202 -0.053529 -18.750600
0.000000 0.000000 0.000000 0.000000 0.000000 -0.000000 -4.165290 92.008800 -1.032050 87.245600 -0.239958 1.966310 15.735700 0.000005 -0.000001 79.942800 85.812300 -75.482000 8.984550 -0.406207 -0.000000 0.564531 -1.741930 8.924390 16.377300 -0.000001 -0.000001 0.549296 -0.525123 -1.320990 6.456720 -0.000001 -0.000000 -4.057770 -2.587710 16.831400 12.994200 -0.242716 4.980390 -84.029400 -11.003200 -61.279200 5.348090 -0.000007 -0.000001 -68.496800 -61.050000 -113.217000 24.328600 0.000019 0.000005 -0.457263 -0.585074 -38.015400 22.291600 -0.000001 0.000005 21.086700 5.556870 -9.034890 12.994500 -0.242716 -4.980390 90.118000 -0.344001 -71.063400 -5.348130 -0.000001 -0.000004 -53.787800 76.848700 9.259580 -24.328900 0.000322 -0.000009 21.083100 -0.416380 -91.080600 -22.291500 -0.000108 -0.000004 36.547800 5.675280 -18.320500 -2.192480 -6.469440 -0.000000 -165.903000 -15.846000 -2.235980 39.081100 -0.000007 -0.000012 -0.137659 0.427310 17.856700 40.985400 -0.000006 -0.000013 -9.119230 2.560020 -60.919500 11.754300 -0.000000 0.000003 -0.000089 -0.000929 -16.613300 -2.192510 6.469440 -0.000001 177.163000 20.265900 177.933000 -39.081100 -0.002282 -0.040193 -0.085516 0.244790 19.946500 -40.985400 0.000008 0.000006 -2.841940 2.144190 -64.527300 -11.754300 -0.000006 -0.000006 -0.004260 -0.054122 -18.774800
